<?xml version="1.0" encoding="UTF-8" standalone="no"?>
<!-- Created with Inkscape (http://www.inkscape.org/) -->

<svg
   xmlns:dc="http://purl.org/dc/elements/1.1/"
   xmlns:cc="http://creativecommons.org/ns#"
   xmlns:rdf="http://www.w3.org/1999/02/22-rdf-syntax-ns#"
   xmlns:svg="http://www.w3.org/2000/svg"
   xmlns="http://www.w3.org/2000/svg"
   xmlns:sodipodi="http://sodipodi.sourceforge.net/DTD/sodipodi-0.dtd"
   xmlns:inkscape="http://www.inkscape.org/namespaces/inkscape"
   width="210mm"
   height="297mm"
   viewBox="0 0 210 297"
   version="1.1"
   id="svg8"
   inkscape:version="0.92.1 r"
   sodipodi:docname="Planks.svg">
  <defs
     id="defs2" />
  <sodipodi:namedview
     id="base"
     pagecolor="#ffffff"
     bordercolor="#666666"
     borderopacity="1.0"
     inkscape:pageopacity="0.0"
     inkscape:pageshadow="2"
     inkscape:zoom="0.85103273"
     inkscape:cx="488.33271"
     inkscape:cy="654.95144"
     inkscape:document-units="mm"
     inkscape:current-layer="layer1"
     showgrid="false"
     inkscape:snap-grids="false"
     inkscape:snap-to-guides="false"
     inkscape:snap-others="false"
     inkscape:object-nodes="false"
     inkscape:snap-nodes="false"
     inkscape:window-width="1680"
     inkscape:window-height="994"
     inkscape:window-x="0"
     inkscape:window-y="31"
     inkscape:window-maximized="1" />
  <metadata
     id="metadata5">
    <rdf:RDF>
      <cc:Work
         rdf:about="">
        <dc:format>image/svg+xml</dc:format>
        <dc:type
           rdf:resource="http://purl.org/dc/dcmitype/StillImage" />
        <dc:title></dc:title>
      </cc:Work>
    </rdf:RDF>
  </metadata>
  <g
     inkscape:label="Layer 1"
     inkscape:groupmode="layer"
     id="layer1"
     style="display:inline">
    <g
       id="g4696"
       transform="matrix(-1,0,0,0.61954091,205.39431,16.517389)"
       style="stroke-width:1.27047169">
      <path
         sodipodi:nodetypes="ccccsscccccccccccccccsscccssccccccccccccsscsc"
         inkscape:connector-curvature="0"
         id="rect4485"
         d="m 50.735223,65.220703 27.163781,1.049172 24.715716,-1.049172 h 25.93974 25.93975 c 0.76477,0 1.38045,0.615684 1.38045,1.380456 v 1.344031 l -0.81858,1.566142 0.81858,1.461191 v 2.161171 3.112748 l -2.04046,0.183675 2.04046,0.546109 v 2.690002 2.743639 l -1.58755,0.543201 1.58755,0.487399 v 2.758296 2.979156 l -0.97528,2.019302 0.97528,1.00965 v 0.524383 c 0,0.764773 -0.61568,1.380456 -1.38045,1.380456 L 125.8441,93.2374 102.61472,94.11171 H 76.67497 50.735223 c -0.764773,0 -1.380456,-0.615683 -1.380456,-1.380456 v -1.427125 l 0.676886,-1.368265 -0.676886,-0.867959 V 86.19872 83.358964 l 1.088903,-0.01449 -1.088903,-0.838529 v -2.839756 -7.161854 l 2.381897,-0.556034 -2.381897,-0.458218 V 68.21842 l 0.874021,-0.317126 -0.874021,-0.483607 V 66.60112 c 0,0 0.615683,-1.380456 1.380456,-1.380456 z"
         style="color:#000000;display:inline;overflow:visible;visibility:visible;opacity:1;fill:#784421;fill-opacity:1;fill-rule:nonzero;stroke:#ffff00;stroke-width:0.67229134;stroke-linecap:round;stroke-linejoin:round;stroke-miterlimit:4;stroke-dasharray:0.67229136, 1.34458273;stroke-dashoffset:0;stroke-opacity:0;marker:none;enable-background:accumulate" />
      <g
         id="g4673"
         style="display:inline;stroke-width:1.27047169"
         transform="translate(6.1489366e-7,-1.5260258e-6)">
        <path
           style="color:#000000;display:inline;overflow:visible;visibility:visible;opacity:1;fill:#c87137;fill-opacity:1;fill-rule:nonzero;stroke:#ffff00;stroke-width:2.54094338;stroke-linecap:round;stroke-linejoin:round;stroke-miterlimit:4;stroke-dasharray:2.54094371, 5.08188752;stroke-dashoffset:0;stroke-opacity:0;marker:none;enable-background:accumulate"
           d="m 190.19922,251.29297 v 3.72265 l 3.57617,1.83985 -3.57617,1.63086 v 10.40234 l 14.45898,2.88672 -14.45898,3.57617 v 27.19727 10.07812 l 5.20117,4.03711 -5.20117,0.0684 v 20.7207 l 1.64258,2.48633 -1.64258,3.57422 v 3.69727 3.69726 h 98.81836 98.81836 l 88.57422,-3.30468 109.06054,3.30468 v -3.11328 l -3.06836,-3.11328 3.06836,-6.22461 v -23.0918 l -5.71289,-1.8125 5.71289,-2.08203 v -20.29882 l -9.36132,-2.88477 9.36132,-1.01367 V 266.2266 l -2.11523,-3.69922 2.11523,-3.5625 v -7.67187 h -98.81836 -98.8164 l -94.19336,3.96484 z m 347.04492,18.63281 19.15039,2.71875 -66.84961,1.66211 z m -298.1582,6.67774 30.58203,1.9746 h -49.50586 z m 175.48437,0.71484 19.33985,0.3125 -66.12305,9.9707 z m 23.77735,13.94531 h 49.50586 l -30.58204,1.97461 z m -118.81641,11.63281 h 49.50586 l -30.58008,1.97461 z m 204.9668,18.65235 h 49.50586 l -18.92383,1.97461 z m -218.95899,6.03711 -46.7832,10.2832 -19.33984,-0.3125 z m 111.6211,2.31445 h 49.50586 l -30.58204,1.97461 z"
           transform="scale(0.26458333)"
           id="rect4489"
           inkscape:connector-curvature="0" />
      </g>
    </g>
    <g
       style="stroke-width:1.27047169"
       transform="matrix(1,0,0,0.61954091,0.16488451,115.60376)"
       id="g4704">
      <path
         style="color:#000000;display:inline;overflow:visible;visibility:visible;opacity:1;fill:#784421;fill-opacity:1;fill-rule:nonzero;stroke:#ffff00;stroke-width:0.67229134;stroke-linecap:round;stroke-linejoin:round;stroke-miterlimit:4;stroke-dasharray:0.67229136, 1.34458273;stroke-dashoffset:0;stroke-opacity:0;marker:none;enable-background:accumulate"
         d="m 50.735223,65.220703 27.163781,1.049172 24.715716,-1.049172 h 25.93974 25.93975 c 0.76477,0 1.38045,0.615684 1.38045,1.380456 v 1.344031 l -0.81858,1.566142 0.81858,1.461191 v 2.161171 3.112748 l -2.04046,0.183675 2.04046,0.546109 v 2.690002 2.743639 l -1.58755,0.543201 1.58755,0.487399 v 2.758296 2.979156 l -0.97528,2.019302 0.97528,1.00965 v 0.524383 c 0,0.764773 -0.61568,1.380456 -1.38045,1.380456 L 125.8441,93.2374 102.61472,94.11171 H 76.67497 50.735223 c -0.764773,0 -1.380456,-0.615683 -1.380456,-1.380456 v -1.427125 l 0.676886,-1.368265 -0.676886,-0.867959 V 86.19872 83.358964 l 1.088903,-0.01449 -1.088903,-0.838529 v -2.839756 -7.161854 l 2.381897,-0.556034 -2.381897,-0.458218 V 68.21842 l 0.874021,-0.317126 -0.874021,-0.483607 V 66.60112 c 0,0 0.615683,-1.380456 1.380456,-1.380456 z"
         id="path4698"
         inkscape:connector-curvature="0"
         sodipodi:nodetypes="ccccsscccccccccccccccsscccssccccccccccccsscsc" />
      <g
         transform="translate(6.1489366e-7,-1.5260258e-6)"
         style="display:inline;stroke-width:1.27047169"
         id="g4702">
        <path
           inkscape:connector-curvature="0"
           id="path4700"
           transform="scale(0.26458333)"
           d="m 190.19922,251.29297 v 3.72265 l 3.57617,1.83985 -3.57617,1.63086 v 10.40234 l 14.45898,2.88672 -14.45898,3.57617 v 27.19727 10.07812 l 5.20117,4.03711 -5.20117,0.0684 v 20.7207 l 1.64258,2.48633 -1.64258,3.57422 v 3.69727 3.69726 h 98.81836 98.81836 l 88.57422,-3.30468 109.06054,3.30468 v -3.11328 l -3.06836,-3.11328 3.06836,-6.22461 v -23.0918 l -5.71289,-1.8125 5.71289,-2.08203 v -20.29882 l -9.36132,-2.88477 9.36132,-1.01367 V 266.2266 l -2.11523,-3.69922 2.11523,-3.5625 v -7.67187 h -98.81836 -98.8164 l -94.19336,3.96484 z m 347.04492,18.63281 19.15039,2.71875 -66.84961,1.66211 z m -298.1582,6.67774 30.58203,1.9746 h -49.50586 z m 175.48437,0.71484 19.33985,0.3125 -66.12305,9.9707 z m 23.77735,13.94531 h 49.50586 l -30.58204,1.97461 z m -118.81641,11.63281 h 49.50586 l -30.58008,1.97461 z m 204.9668,18.65235 h 49.50586 l -18.92383,1.97461 z m -218.95899,6.03711 -46.7832,10.2832 -19.33984,-0.3125 z m 111.6211,2.31445 h 49.50586 l -30.58204,1.97461 z"
           style="color:#000000;display:inline;overflow:visible;visibility:visible;opacity:1;fill:#c87137;fill-opacity:1;fill-rule:nonzero;stroke:#ffff00;stroke-width:2.54094338;stroke-linecap:round;stroke-linejoin:round;stroke-miterlimit:4;stroke-dasharray:2.54094371, 5.08188752;stroke-dashoffset:0;stroke-opacity:0;marker:none;enable-background:accumulate" />
      </g>
    </g>
    <g
       id="g4712"
       transform="matrix(0,1.1836297,-0.61954091,0,113.49967,-5.0683274)"
       style="stroke-width:1.16776931">
      <path
         sodipodi:nodetypes="ccccsscccccccccccccccsscccssccccccccccccsscsc"
         inkscape:connector-curvature="0"
         id="path4706"
         d="m 50.735223,65.220703 27.163781,1.049172 24.715716,-1.049172 h 25.93974 25.93975 c 0.76477,0 1.38045,0.615684 1.38045,1.380456 v 1.344031 l -0.81858,1.566142 0.81858,1.461191 v 2.161171 3.112748 l -2.04046,0.183675 2.04046,0.546109 v 2.690002 2.743639 l -1.58755,0.543201 1.58755,0.487399 v 2.758296 2.979156 l -0.97528,2.019302 0.97528,1.00965 v 0.524383 c 0,0.764773 -0.61568,1.380456 -1.38045,1.380456 L 125.8441,93.2374 102.61472,94.11171 H 76.67497 50.735223 c -0.764773,0 -1.380456,-0.615683 -1.380456,-1.380456 v -1.427125 l 0.676886,-1.368265 -0.676886,-0.867959 V 86.19872 83.358964 l 1.088903,-0.01449 -1.088903,-0.838529 v -2.839756 -7.161854 l 2.381897,-0.556034 -2.381897,-0.458218 V 68.21842 l 0.874021,-0.317126 -0.874021,-0.483607 V 66.60112 c 0,0 0.615683,-1.380456 1.380456,-1.380456 z"
         style="color:#000000;display:inline;overflow:visible;visibility:visible;opacity:1;fill:#784421;fill-opacity:1;fill-rule:nonzero;stroke:#ffff00;stroke-width:0.61794466;stroke-linecap:round;stroke-linejoin:round;stroke-miterlimit:4;stroke-dasharray:0.61794469, 1.23588939;stroke-dashoffset:0;stroke-opacity:0;marker:none;enable-background:accumulate" />
      <g
         id="g4710"
         style="display:inline;stroke-width:1.16776931"
         transform="translate(6.1489366e-7,-1.5260258e-6)">
        <path
           style="color:#000000;display:inline;overflow:visible;visibility:visible;opacity:1;fill:#c87137;fill-opacity:1;fill-rule:nonzero;stroke:#ffff00;stroke-width:2.33553863;stroke-linecap:round;stroke-linejoin:round;stroke-miterlimit:4;stroke-dasharray:2.33553897, 4.67107804;stroke-dashoffset:0;stroke-opacity:0;marker:none;enable-background:accumulate"
           d="m 190.19922,251.29297 v 3.72265 l 3.57617,1.83985 -3.57617,1.63086 v 10.40234 l 14.45898,2.88672 -14.45898,3.57617 v 27.19727 10.07812 l 5.20117,4.03711 -5.20117,0.0684 v 20.7207 l 1.64258,2.48633 -1.64258,3.57422 v 3.69727 3.69726 h 98.81836 98.81836 l 88.57422,-3.30468 109.06054,3.30468 v -3.11328 l -3.06836,-3.11328 3.06836,-6.22461 v -23.0918 l -5.71289,-1.8125 5.71289,-2.08203 v -20.29882 l -9.36132,-2.88477 9.36132,-1.01367 V 266.2266 l -2.11523,-3.69922 2.11523,-3.5625 v -7.67187 h -98.81836 -98.8164 l -94.19336,3.96484 z m 347.04492,18.63281 19.15039,2.71875 -66.84961,1.66211 z m -298.1582,6.67774 30.58203,1.9746 h -49.50586 z m 175.48437,0.71484 19.33985,0.3125 -66.12305,9.9707 z m 23.77735,13.94531 h 49.50586 l -30.58204,1.97461 z m -118.81641,11.63281 h 49.50586 l -30.58008,1.97461 z m 204.9668,18.65235 h 49.50586 l -18.92383,1.97461 z m -218.95899,6.03711 -46.7832,10.2832 -19.33984,-0.3125 z m 111.6211,2.31445 h 49.50586 l -30.58204,1.97461 z"
           transform="scale(0.26458333)"
           id="path4708"
           inkscape:connector-curvature="0" />
      </g>
    </g>
    <g
       style="stroke-width:1.16776931"
       transform="matrix(0,-1.1836297,-0.61954091,0,190.60207,237.84732)"
       id="g4764">
      <path
         style="color:#000000;display:inline;overflow:visible;visibility:visible;opacity:1;fill:#784421;fill-opacity:1;fill-rule:nonzero;stroke:#ffff00;stroke-width:0.61794466;stroke-linecap:round;stroke-linejoin:round;stroke-miterlimit:4;stroke-dasharray:0.61794469, 1.23588939;stroke-dashoffset:0;stroke-opacity:0;marker:none;enable-background:accumulate"
         d="m 50.735223,65.220703 27.163781,1.049172 24.715716,-1.049172 h 25.93974 25.93975 c 0.76477,0 1.38045,0.615684 1.38045,1.380456 v 1.344031 l -0.81858,1.566142 0.81858,1.461191 v 2.161171 3.112748 l -2.04046,0.183675 2.04046,0.546109 v 2.690002 2.743639 l -1.58755,0.543201 1.58755,0.487399 v 2.758296 2.979156 l -0.97528,2.019302 0.97528,1.00965 v 0.524383 c 0,0.764773 -0.61568,1.380456 -1.38045,1.380456 L 125.8441,93.2374 102.61472,94.11171 H 76.67497 50.735223 c -0.764773,0 -1.380456,-0.615683 -1.380456,-1.380456 v -1.427125 l 0.676886,-1.368265 -0.676886,-0.867959 V 86.19872 83.358964 l 1.088903,-0.01449 -1.088903,-0.838529 v -2.839756 -7.161854 l 2.381897,-0.556034 -2.381897,-0.458218 V 68.21842 l 0.874021,-0.317126 -0.874021,-0.483607 V 66.60112 c 0,0 0.615683,-1.380456 1.380456,-1.380456 z"
         id="path4758"
         inkscape:connector-curvature="0"
         sodipodi:nodetypes="ccccsscccccccccccccccsscccssccccccccccccsscsc" />
      <g
         transform="translate(6.1489366e-7,-1.5260258e-6)"
         style="display:inline;stroke-width:1.16776931"
         id="g4762">
        <path
           inkscape:connector-curvature="0"
           id="path4760"
           transform="scale(0.26458333)"
           d="m 190.19922,251.29297 v 3.72265 l 3.57617,1.83985 -3.57617,1.63086 v 10.40234 l 14.45898,2.88672 -14.45898,3.57617 v 27.19727 10.07812 l 5.20117,4.03711 -5.20117,0.0684 v 20.7207 l 1.64258,2.48633 -1.64258,3.57422 v 3.69727 3.69726 h 98.81836 98.81836 l 88.57422,-3.30468 109.06054,3.30468 v -3.11328 l -3.06836,-3.11328 3.06836,-6.22461 v -23.0918 l -5.71289,-1.8125 5.71289,-2.08203 v -20.29882 l -9.36132,-2.88477 9.36132,-1.01367 V 266.2266 l -2.11523,-3.69922 2.11523,-3.5625 v -7.67187 h -98.81836 -98.8164 l -94.19336,3.96484 z m 347.04492,18.63281 19.15039,2.71875 -66.84961,1.66211 z m -298.1582,6.67774 30.58203,1.9746 h -49.50586 z m 175.48437,0.71484 19.33985,0.3125 -66.12305,9.9707 z m 23.77735,13.94531 h 49.50586 l -30.58204,1.97461 z m -118.81641,11.63281 h 49.50586 l -30.58008,1.97461 z m 204.9668,18.65235 h 49.50586 l -18.92383,1.97461 z m -218.95899,6.03711 -46.7832,10.2832 -19.33984,-0.3125 z m 111.6211,2.31445 h 49.50586 l -30.58204,1.97461 z"
           style="color:#000000;display:inline;overflow:visible;visibility:visible;opacity:1;fill:#c87137;fill-opacity:1;fill-rule:nonzero;stroke:#ffff00;stroke-width:2.33553863;stroke-linecap:round;stroke-linejoin:round;stroke-miterlimit:4;stroke-dasharray:2.33553897, 4.67107804;stroke-dashoffset:0;stroke-opacity:0;marker:none;enable-background:accumulate" />
      </g>
    </g>
  </g>
  <g
     inkscape:groupmode="layer"
     id="layer2"
     inkscape:label="Layer 2"
     style="display:inline" />
  <g
     inkscape:groupmode="layer"
     id="layer3"
     inkscape:label="Layer 3" />
  <g
     inkscape:label="Layer 3 copy"
     id="g4667"
     inkscape:groupmode="layer"
     style="display:none">
    <path
       sodipodi:nodetypes="cccc"
       inkscape:connector-curvature="0"
       id="path4651"
       d="m 58.251212,73.707195 5.007112,-0.522462 8.091199,0.522462 z"
       style="display:inline;fill:#000000;fill-rule:evenodd;stroke:none;stroke-width:0.26458332px;stroke-linecap:butt;stroke-linejoin:miter;stroke-opacity:1" />
    <path
       style="display:inline;fill:#000000;fill-rule:evenodd;stroke:none;stroke-width:0.26458332px;stroke-linecap:butt;stroke-linejoin:miter;stroke-opacity:1"
       d="m 84.542745,80.141245 5.007112,0.522462 8.091199,-0.522462 z"
       id="path4653"
       inkscape:connector-curvature="0"
       sodipodi:nodetypes="cccc" />
    <path
       sodipodi:nodetypes="cccc"
       inkscape:connector-curvature="0"
       id="path4655"
       d="m 114.80556,73.456503 -5.11704,-0.08279 -12.378021,2.720834 z"
       style="display:inline;fill:#000000;fill-rule:evenodd;stroke:none;stroke-width:0.26458332px;stroke-linecap:butt;stroke-linejoin:miter;stroke-opacity:1" />
    <path
       sodipodi:nodetypes="cccc"
       inkscape:connector-curvature="0"
       id="path4657"
       d="m 151.87179,85.076535 -5.00711,0.522462 -8.0912,-0.522462 z"
       style="display:inline;fill:#000000;fill-rule:evenodd;stroke:none;stroke-width:0.26458332px;stroke-linecap:butt;stroke-linejoin:miter;stroke-opacity:1" />
    <path
       style="display:inline;fill:#000000;fill-rule:evenodd;stroke:none;stroke-width:0.26458332px;stroke-linecap:butt;stroke-linejoin:miter;stroke-opacity:1"
       d="m 63.345645,89.31191 5.117039,0.08279 12.37802,-2.720834 z"
       id="path4659"
       inkscape:connector-curvature="0"
       sodipodi:nodetypes="cccc" />
    <path
       sodipodi:nodetypes="cccc"
       inkscape:connector-curvature="0"
       id="path4661"
       d="m 115.97946,77.063524 5.00712,0.522462 8.09119,-0.522462 z"
       style="display:inline;fill:#000000;fill-rule:evenodd;stroke:none;stroke-width:0.26458332px;stroke-linecap:butt;stroke-linejoin:miter;stroke-opacity:1" />
    <path
       style="display:inline;fill:#000000;fill-rule:evenodd;stroke:none;stroke-width:0.26458332px;stroke-linecap:butt;stroke-linejoin:miter;stroke-opacity:1"
       d="m 110.37361,87.285954 5.00712,0.522462 8.09119,-0.522462 z"
       id="path4663"
       inkscape:connector-curvature="0"
       sodipodi:nodetypes="cccc" />
    <path
       style="display:inline;fill:#000000;fill-rule:evenodd;stroke:none;stroke-width:0.26458332px;stroke-linecap:butt;stroke-linejoin:miter;stroke-opacity:1"
       d="m 147.21263,72.13709 -5.06694,-0.719096 -12.62043,1.158904 z"
       id="path4665"
       inkscape:connector-curvature="0"
       sodipodi:nodetypes="cccc" />
  </g>
</svg>
