<?xml version="1.0" encoding="UTF-8" standalone="no"?>
<!-- Created with Inkscape (http://www.inkscape.org/) -->

<svg
   xmlns:dc="http://purl.org/dc/elements/1.1/"
   xmlns:cc="http://creativecommons.org/ns#"
   xmlns:rdf="http://www.w3.org/1999/02/22-rdf-syntax-ns#"
   xmlns:svg="http://www.w3.org/2000/svg"
   xmlns="http://www.w3.org/2000/svg"
   xmlns:sodipodi="http://sodipodi.sourceforge.net/DTD/sodipodi-0.dtd"
   xmlns:inkscape="http://www.inkscape.org/namespaces/inkscape"
   sodipodi:docname="Sprites.svg"
   inkscape:version="0.92.1 r"
   id="svg8"
   version="1.1"
   viewBox="0 0 210 297"
   height="297mm"
   width="210mm">
  <sodipodi:namedview
     inkscape:window-maximized="1"
     inkscape:window-y="31"
     inkscape:window-x="0"
     inkscape:window-height="994"
     inkscape:window-width="1680"
     showgrid="false"
     inkscape:current-layer="layer1"
     inkscape:document-units="mm"
     inkscape:cy="625.26514"
     inkscape:cx="302.36351"
     inkscape:zoom="2.157783"
     inkscape:pageshadow="2"
     inkscape:pageopacity="0.0"
     borderopacity="1.0"
     bordercolor="#666666"
     pagecolor="#ffffff"
     id="base">
    <inkscape:grid
       id="grid4546"
       type="xygrid" />
  </sodipodi:namedview>
  <defs
     id="defs2" />
  <metadata
     id="metadata5">
    <rdf:RDF>
      <cc:Work
         rdf:about="">
        <dc:format>image/svg+xml</dc:format>
        <dc:type
           rdf:resource="http://purl.org/dc/dcmitype/StillImage" />
        <dc:title />
      </cc:Work>
    </rdf:RDF>
  </metadata>
  <g
     style="display:inline"
     id="layer1"
     inkscape:groupmode="layer"
     inkscape:label="Layer 1">
    <g
       id="g4528"
       inkscape:export-xdpi="94.199997"
       inkscape:export-ydpi="94.199997">
      <path
         style="color:#000000;display:inline;overflow:visible;visibility:visible;opacity:1;fill:#ff0000;fill-opacity:1;fill-rule:nonzero;stroke:none;stroke-width:0.56444442;stroke-linecap:round;stroke-linejoin:round;stroke-miterlimit:4;stroke-dasharray:0.5644444, 1.12888881000000008;stroke-dashoffset:0;stroke-opacity:1;marker:none;enable-background:accumulate"
         d="m 52.405776,87.917395 c -14.112451,0 -17.883684,13.923445 -18.559818,30.663395 0.251096,0.48837 0.499514,0.89452 0.740189,1.17409 0.264496,0.30723 0.521168,0.50031 0.766995,0.60564 0.245826,0.10534 0.480994,0.12296 0.701778,0.0791 0.220783,-0.0439 0.427186,-0.14945 0.616555,-0.2899 0.18937,-0.14045 0.361749,-0.31589 0.513331,-0.50023 0.151584,-0.18434 0.282673,-0.37738 0.3901,-0.55294 0.214855,-0.35112 0.334886,-0.632 0.334886,-0.632 0,0 0.110604,-0.3006 0.313278,-0.67645 0.101338,-0.18792 0.225704,-0.39489 0.370895,-0.59221 0.145191,-0.19731 0.311228,-0.38503 0.495726,-0.53536 0.184498,-0.15034 0.387293,-0.26308 0.606555,-0.31006 0.219261,-0.047 0.454698,-0.0285 0.704179,0.0842 0.249481,0.11275 0.513045,0.31967 0.788201,0.64854 0.275153,0.32886 0.561932,0.77996 0.858217,1.38131 0.276799,0.5618 0.548209,0.98312 0.811407,1.29036 0.263198,0.30723 0.518196,0.50031 0.761794,0.60565 0.243598,0.10533 0.475779,0.12295 0.693777,0.0791 0.217995,-0.0439 0.421755,-0.14946 0.608152,-0.28991 0.1864,-0.14045 0.355732,-0.31589 0.504531,-0.50023 0.148796,-0.18434 0.277298,-0.37737 0.382495,-0.55293 0.210398,-0.35113 0.327684,-0.63201 0.327684,-0.63201 0,0 0.10706,-0.3006 0.305279,-0.67644 0.09911,-0.18792 0.221287,-0.3949 0.363692,-0.59222 0.142403,-0.19731 0.305398,-0.38502 0.486923,-0.53536 0.181526,-0.15034 0.381277,-0.26308 0.597752,-0.31006 0.216476,-0.047 0.449328,-0.0285 0.696578,0.0842 0.24725,0.11275 0.509145,0.31968 0.783,0.64854 0.273854,0.32886 0.559932,0.77996 0.856216,1.38131 0.2768,0.5618 0.548909,0.98313 0.813408,1.29036 0.264497,0.30724 0.521169,0.50031 0.766995,0.60565 0.245826,0.10534 0.480995,0.12295 0.701778,0.0791 0.220783,-0.0439 0.427186,-0.14946 0.616556,-0.28991 0.189369,-0.14045 0.361748,-0.31588 0.51333,-0.50022 0.151585,-0.18435 0.282674,-0.37738 0.3901,-0.55294 0.214855,-0.35113 0.334886,-0.632 0.334886,-0.632 0,0 0.110203,-0.30061 0.312879,-0.67645 0.101339,-0.18792 0.226104,-0.39489 0.371294,-0.59221 0.145191,-0.19732 0.310829,-0.38503 0.495327,-0.53537 0.184498,-0.15034 0.387693,-0.26308 0.606954,-0.31006 0.219261,-0.047 0.454698,-0.0285 0.704179,0.0842 0.249479,0.11276 0.513046,0.31968 0.788201,0.64854 0.275154,0.32887 0.561932,0.77996 0.858218,1.38131 0.276798,0.5618 0.548322,0.98313 0.811407,1.29036 0.263083,0.30724 0.51759,0.50032 0.760993,0.60565 0.243403,0.10534 0.475621,0.12296 0.693377,0.0791 0.217754,-0.0439 0.421214,-0.14945 0.607354,-0.2899 0.186136,-0.14045 0.354773,-0.31589 0.503327,-0.50023 0.148555,-0.18434 0.277094,-0.37738 0.382097,-0.55294 0.210008,-0.35112 0.326884,-0.632 0.326884,-0.632 0,0 0.10705,-0.3006 0.304877,-0.67645 0.09891,-0.18792 0.220733,-0.39489 0.362892,-0.59221 0.142161,-0.19731 0.304859,-0.38503 0.486124,-0.53537 0.181266,-0.15033 0.381121,-0.26307 0.597353,-0.31005 0.216229,-0.047 0.44872,-0.0285 0.695776,0.0842 0.247056,0.11275 0.508457,0.31967 0.782199,0.64853 0.27374,0.32887 0.559932,0.77997 0.856218,1.38132 0.276798,0.5618 0.548908,0.98312 0.813407,1.29036 0.264499,0.30723 0.521168,0.50031 0.766995,0.60564 0.245826,0.10534 0.480994,0.12296 0.701778,0.0791 0.220783,-0.0439 0.427188,-0.14945 0.616557,-0.2899 0.18937,-0.14045 0.361747,-0.31589 0.513331,-0.50023 0.151582,-0.18434 0.282671,-0.37737 0.390098,-0.55294 0.160408,-0.26214 0.205815,-0.37561 0.250065,-0.4718 C 70.059395,101.85417 66.518226,87.917395 52.405776,87.917395 Z"
         id="path4485"
         inkscape:connector-curvature="0"
         sodipodi:nodetypes="zccccccccccccccscccccccccccccccscccccccscccccccccccccccccccccccccz" />
      <circle
         style="color:#000000;display:inline;overflow:visible;visibility:visible;opacity:1;fill:#ffffff;fill-opacity:1;fill-rule:nonzero;stroke:none;stroke-width:0.56444442;stroke-linecap:round;stroke-linejoin:round;stroke-miterlimit:4;stroke-dasharray:0.5644444, 1.12888881;stroke-dashoffset:0;stroke-opacity:1;marker:none;enable-background:accumulate"
         id="path4533"
         cx="45.769558"
         cy="98.991333"
         r="3.1471574" />
      <circle
         r="3.1471574"
         cy="98.991333"
         cx="58.222416"
         id="circle4535"
         style="color:#000000;display:inline;overflow:visible;visibility:visible;opacity:1;fill:#ffffff;fill-opacity:1;fill-rule:nonzero;stroke:none;stroke-width:0.56444442;stroke-linecap:round;stroke-linejoin:round;stroke-miterlimit:4;stroke-dasharray:0.5644444, 1.12888881;stroke-dashoffset:0;stroke-opacity:1;marker:none;enable-background:accumulate" />
      <circle
         r="1.8596669"
         cy="98.316933"
         cx="45.217777"
         id="circle4519"
         style="color:#000000;display:inline;overflow:visible;visibility:visible;opacity:1;fill:#000000;fill-opacity:1;fill-rule:nonzero;stroke:none;stroke-width:0.56444442;stroke-linecap:round;stroke-linejoin:round;stroke-miterlimit:4;stroke-dasharray:0.5644444, 1.1288888;stroke-dashoffset:0;stroke-opacity:1;marker:none;enable-background:accumulate" />
      <circle
         style="color:#000000;display:inline;overflow:visible;visibility:visible;opacity:1;fill:#000000;fill-opacity:1;fill-rule:nonzero;stroke:none;stroke-width:0.56444442;stroke-linecap:round;stroke-linejoin:round;stroke-miterlimit:4;stroke-dasharray:0.5644444, 1.1288888;stroke-dashoffset:0;stroke-opacity:1;marker:none;enable-background:accumulate"
         id="circle4521"
         cx="58.337917"
         cy="99.788353"
         r="1.8596669" />
    </g>
  </g>
</svg>
